<svg xmlns="http://www.w3.org/2000/svg" xmlns:xlink="http://www.w3.org/1999/xlink" width="2000" zoomAndPan="magnify" viewBox="0 0 1500 1499.999933" height="2000" preserveAspectRatio="xMidYMid meet" version="1.0"><defs><g/><clipPath id="ffab1a2064"><path d="M 274.980469 291.683594 L 1194.675781 291.683594 L 1194.675781 1211.382812 L 274.980469 1211.382812 Z M 274.980469 291.683594 " clip-rule="nonzero"/></clipPath><clipPath id="7dae3363b4"><path d="M 734.828125 291.683594 C 480.859375 291.683594 274.980469 497.566406 274.980469 751.535156 C 274.980469 1005.5 480.859375 1211.382812 734.828125 1211.382812 C 988.792969 1211.382812 1194.675781 1005.5 1194.675781 751.535156 C 1194.675781 497.566406 988.792969 291.683594 734.828125 291.683594 Z M 734.828125 291.683594 " clip-rule="nonzero"/></clipPath><clipPath id="657784866b"><path d="M 0.980469 0.683594 L 920.675781 0.683594 L 920.675781 920.382812 L 0.980469 920.382812 Z M 0.980469 0.683594 " clip-rule="nonzero"/></clipPath><clipPath id="9c994d4e6f"><path d="M 460.828125 0.683594 C 206.859375 0.683594 0.980469 206.566406 0.980469 460.535156 C 0.980469 714.5 206.859375 920.382812 460.828125 920.382812 C 714.792969 920.382812 920.675781 714.5 920.675781 460.535156 C 920.675781 206.566406 714.792969 0.683594 460.828125 0.683594 Z M 460.828125 0.683594 " clip-rule="nonzero"/></clipPath><clipPath id="c60b48df83"><rect x="0" width="921" y="0" height="921"/></clipPath><clipPath id="7eca35611d"><rect x="0" width="454" y="0" height="859"/></clipPath><clipPath id="b383b41899"><rect x="0" width="352" y="0" height="859"/></clipPath><clipPath id="9a6bc8ba3a"><rect x="0" width="417" y="0" height="281"/></clipPath></defs><rect x="-150" width="1800" fill="#ffffff" y="-149.999993" height="1799.99992" fill-opacity="1"/><rect x="-150" width="1800" fill="#e1e1e1" y="-149.999993" height="1799.99992" fill-opacity="1"/><g clip-path="url(#ffab1a2064)"><g clip-path="url(#7dae3363b4)"><g transform="matrix(1, 0, 0, 1, 274, 291)"><g clip-path="url(#c60b48df83)"><g clip-path="url(#657784866b)"><g clip-path="url(#9c994d4e6f)"><path fill="#00183d" d="M 0.980469 0.683594 L 920.675781 0.683594 L 920.675781 920.382812 L 0.980469 920.382812 Z M 0.980469 0.683594 " fill-opacity="1" fill-rule="nonzero"/></g></g></g></g></g></g><g transform="matrix(1, 0, 0, 1, 583, 447)"><g clip-path="url(#7eca35611d)"><g fill="#ffffff" fill-opacity="1"><g transform="translate(59.213259, 621.533238)"><g><path d="M -36.828125 -318.21875 C -49.953125 -333.882812 -56.515625 -349.441406 -56.515625 -364.890625 C -56.515625 -380.347656 -52.914062 -393.6875 -45.71875 -404.90625 C -38.519531 -416.132812 -26.875 -425.664062 -10.78125 -433.5 C 5.300781 -441.332031 23.503906 -445.25 43.828125 -445.25 L 304.25 -445.25 C 317.375 -445.25 331.875 -446.515625 347.75 -449.046875 C 363.632812 -451.585938 374.75 -454.128906 381.09375 -456.671875 L 381.09375 -376.640625 L 374.75 -377.28125 L 374.75 -388.078125 C 374.75 -398.242188 371.148438 -407.03125 363.953125 -414.4375 C 356.753906 -421.84375 348.285156 -425.757812 338.546875 -426.1875 L 217.859375 -426.1875 L 217.859375 -45.734375 C 218.285156 -30.484375 225.0625 -19.050781 238.1875 -11.4375 C 244.539062 -8.039062 251.316406 -6.34375 258.515625 -6.34375 L 266.765625 -6.34375 L 266.765625 0 L 127.671875 0 L 127.671875 -6.34375 L 135.921875 -6.34375 C 146.929688 -6.34375 156.351562 -10.15625 164.1875 -17.78125 C 172.019531 -25.40625 176.148438 -34.507812 176.578125 -45.09375 L 176.578125 -426.1875 L 43.828125 -426.1875 C 9.953125 -426.1875 -14.601562 -415.390625 -29.84375 -393.796875 C -37.894531 -382.785156 -41.921875 -371.242188 -41.921875 -359.171875 C -41.921875 -347.109375 -38.53125 -334.515625 -31.75 -321.390625 Z M -36.828125 -318.21875 "/></g></g></g></g></g><g transform="matrix(1, 0, 0, 1, 440, 322)"><g clip-path="url(#b383b41899)"><g fill="#ffffff" fill-opacity="1"><g transform="translate(0.322886, 621.533239)"><g><path d="M 75.578125 -168.953125 C 53.566406 -140.160156 42.5625 -109.035156 42.5625 -75.578125 C 42.5625 -35.773438 59.285156 -4.863281 92.734375 17.15625 C 112.210938 30.28125 134.335938 36.84375 159.109375 36.84375 C 183.878906 36.84375 205.367188 31.972656 223.578125 22.234375 C 257.867188 4.441406 277.132812 -25.410156 281.375 -67.328125 C 281.800781 -70.285156 282.015625 -73.25 282.015625 -76.21875 C 282.015625 -91.882812 277.671875 -108.820312 268.984375 -127.03125 C 260.304688 -145.238281 246.226562 -161.960938 226.75 -177.203125 L 112.421875 -267.40625 C 87.441406 -286.882812 74.953125 -312.078125 74.953125 -342.984375 C 74.953125 -373.890625 84.898438 -400.035156 104.796875 -421.421875 C 124.703125 -442.804688 151.59375 -453.5 185.46875 -453.5 C 202.40625 -453.5 220.820312 -451.382812 240.71875 -447.15625 L 266.125 -447.15625 L 267.40625 -369.03125 L 261.046875 -369.03125 C 260.617188 -389.351562 253.3125 -405.335938 239.125 -416.984375 C 224.945312 -428.628906 207.164062 -434.453125 185.78125 -434.453125 C 164.394531 -434.453125 146.503906 -427.359375 132.109375 -413.171875 C 117.710938 -398.984375 110.515625 -380.773438 110.515625 -358.546875 C 110.515625 -336.316406 119.832031 -317.789062 138.46875 -302.96875 L 255.96875 -210.234375 C 302.539062 -173.398438 325.828125 -128.941406 325.828125 -76.859375 C 325.828125 -37.898438 310.375 -4.445312 279.46875 23.5 C 252.789062 47.632812 217.222656 59.703125 172.765625 59.703125 C 145.660156 59.703125 121.523438 54.617188 100.359375 44.453125 C 60.554688 25.828125 36.628906 -5.925781 28.578125 -50.8125 C 27.304688 -57.582031 26.671875 -66.15625 26.671875 -76.53125 C 26.671875 -86.90625 29.632812 -101.085938 35.5625 -119.078125 C 41.488281 -137.078125 52.921875 -155.179688 69.859375 -173.390625 Z M 75.578125 -168.953125 "/></g></g></g></g></g><g transform="matrix(1, 0, 0, 1, 631, 292)"><g clip-path="url(#9a6bc8ba3a)"><g fill="#ffffff" fill-opacity="1"><g transform="translate(20.682413, 86.434312)"><g><path d="M 11.796875 0.078125 C 8.453125 0.160156 5.828125 -0.519531 3.921875 -1.96875 C 2.015625 -3.425781 0.894531 -5.59375 0.5625 -8.46875 L 5.421875 -9.3125 C 5.992188 -5.90625 8.160156 -4.242188 11.921875 -4.328125 C 13.546875 -4.367188 14.804688 -4.722656 15.703125 -5.390625 C 16.597656 -6.066406 17.03125 -6.992188 17 -8.171875 C 16.976562 -9.242188 16.503906 -10.039062 15.578125 -10.5625 C 14.648438 -11.09375 13.179688 -11.570312 11.171875 -12 C 9.296875 -12.414062 7.679688 -12.921875 6.328125 -13.515625 C 4.972656 -14.109375 3.925781 -14.929688 3.1875 -15.984375 C 2.457031 -17.035156 2.070312 -18.441406 2.03125 -20.203125 C 1.988281 -21.890625 2.382812 -23.394531 3.21875 -24.71875 C 4.0625 -26.050781 5.234375 -27.101562 6.734375 -27.875 C 8.242188 -28.65625 10 -29.066406 12 -29.109375 C 14.644531 -29.171875 16.820312 -28.53125 18.53125 -27.1875 C 20.25 -25.851562 21.285156 -23.976562 21.640625 -21.5625 L 17.09375 -20.6875 C 16.46875 -23.445312 14.726562 -24.789062 11.875 -24.71875 C 10.488281 -24.6875 9.367188 -24.300781 8.515625 -23.5625 C 7.660156 -22.820312 7.25 -21.863281 7.28125 -20.6875 C 7.300781 -19.507812 7.742188 -18.617188 8.609375 -18.015625 C 9.484375 -17.410156 10.957031 -16.890625 13.03125 -16.453125 C 14.875 -16.078125 16.472656 -15.617188 17.828125 -15.078125 C 19.179688 -14.535156 20.238281 -13.765625 21 -12.765625 C 21.757812 -11.765625 22.160156 -10.382812 22.203125 -8.625 C 22.234375 -6.96875 21.816406 -5.492188 20.953125 -4.203125 C 20.085938 -2.910156 18.867188 -1.882812 17.296875 -1.125 C 15.734375 -0.375 13.898438 0.0234375 11.796875 0.078125 Z M 11.796875 0.078125 "/></g></g></g><g fill="#ffffff" fill-opacity="1"><g transform="translate(72.893992, 87.112906)"><g><path d="M -0.40625 -0.046875 L 15.0625 -26.828125 L 19.4375 -26.296875 L 27.59375 3.328125 L 22.34375 2.703125 L 20.578125 -4.046875 L 8.265625 -5.53125 L 4.859375 0.59375 Z M 10.5625 -9.65625 L 19.4375 -8.59375 L 16.40625 -20.21875 Z M 10.5625 -9.65625 "/></g></g></g><g fill="#ffffff" fill-opacity="1"><g transform="translate(128.331816, 95.739985)"><g><path d="M 2.65625 0.765625 L 11.609375 -26.234375 L 15.96875 -24.984375 L 19.84375 -1.03125 L 35.921875 -19.1875 L 40.265625 -17.9375 L 33.1875 9.625 L 28.375 8.234375 L 32.796875 -8.921875 L 19.734375 5.71875 L 15.96875 4.625 L 12.859375 -14.5625 L 7.265625 2.109375 Z M 2.65625 0.765625 "/></g></g></g><g fill="#ffffff" fill-opacity="1"><g transform="translate(190.987873, 116.995181)"><g/></g></g><g fill="#ffffff" fill-opacity="1"><g transform="translate(225.795556, 134.075613)"><g><path d="M 34.84375 -12.21875 L 31.9375 -8.640625 L 24.390625 -13.1875 L 12.078125 7.265625 L 7.609375 4.578125 L 19.921875 -15.875 L 12.109375 -20.578125 L 14.46875 -24.484375 Z M 34.84375 -12.21875 "/></g></g></g><g fill="#ffffff" fill-opacity="1"><g transform="translate(269.125024, 162.485433)"><g><path d="M 31.5625 -5.3125 L 21.28125 -13.609375 L 16.671875 -7.90625 L 26.453125 -0.015625 L 23.640625 3.46875 L 13.859375 -4.421875 L 9.046875 1.546875 L 19.703125 10.140625 L 16.609375 13.40625 L 2.28125 1.828125 L 20.140625 -20.296875 L 34.375 -8.796875 Z M 31.5625 -5.3125 "/></g></g></g><g fill="#ffffff" fill-opacity="1"><g transform="translate(307.903255, 196.22345)"><g><path d="M 22.46875 16.015625 C 20.3125 16.484375 18.1875 16.34375 16.09375 15.59375 C 14.007812 14.84375 12.128906 13.566406 10.453125 11.765625 C 8.472656 9.640625 7.1875 7.429688 6.59375 5.140625 C 6 2.847656 6.085938 0.582031 6.859375 -1.65625 C 7.628906 -3.894531 9.082031 -6.007812 11.21875 -8 C 13.425781 -10.050781 15.773438 -11.398438 18.265625 -12.046875 C 20.765625 -12.691406 23.226562 -12.648438 25.65625 -11.921875 C 28.082031 -11.191406 30.28125 -9.769531 32.25 -7.65625 C 33.925781 -5.851562 35.019531 -3.992188 35.53125 -2.078125 C 36.039062 -0.160156 36.003906 1.867188 35.421875 4.015625 L 30.578125 3.046875 C 31.066406 1.609375 31.132812 0.253906 30.78125 -1.015625 C 30.425781 -2.296875 29.769531 -3.453125 28.8125 -4.484375 C 27.570312 -5.828125 26.15625 -6.703125 24.5625 -7.109375 C 22.96875 -7.523438 21.332031 -7.488281 19.65625 -7 C 17.976562 -6.507812 16.382812 -5.566406 14.875 -4.171875 C 12.707031 -2.148438 11.539062 -0.0195312 11.375 2.21875 C 11.21875 4.46875 12.078125 6.601562 13.953125 8.625 C 14.984375 9.738281 16.1875 10.53125 17.5625 11 C 18.945312 11.46875 20.429688 11.507812 22.015625 11.125 Z M 22.46875 16.015625 "/></g></g></g><g fill="#ffffff" fill-opacity="1"><g transform="translate(344.133409, 238.154534)"><g><path d="M 1.640625 2.40625 L 25.140625 -13.625 L 28.078125 -9.3125 L 18.34375 -2.671875 L 25.921875 8.4375 L 35.65625 1.796875 L 38.609375 6.125 L 15.109375 22.15625 L 12.15625 17.828125 L 22.140625 11.015625 L 14.5625 -0.09375 L 4.578125 6.71875 Z M 1.640625 2.40625 "/></g></g></g></g></g></svg>